<svg xmlns="http://www.w3.org/2000/svg" xmlns:xlink="http://www.w3.org/1999/xlink" width="64" height="64" viewBox="0 0 64 64" fill="none"><g opacity="1"  transform="translate(0 0)  rotate(0)"><mask id="bg-mask-0" fill="white"><use transform="translate(0 0)  rotate(0)" xlink:href="#path_0"></use></mask><g mask="url(#bg-mask-0)" ><path id="路径 1" fill-rule="evenodd" style="fill:#000000" opacity="1" d="M10.6667 10.6667L53.3333 10.6667C53.4206 10.6667 53.5078 10.6688 53.595 10.673C53.6822 10.6773 53.7693 10.6838 53.8561 10.6924C53.943 10.7009 54.0295 10.7116 54.1159 10.7244C54.2022 10.7372 54.2882 10.7521 54.3738 10.7691C54.4595 10.7861 54.5446 10.8053 54.6293 10.8265C54.7139 10.8477 54.798 10.871 54.8815 10.8963C54.965 10.9216 55.0479 10.949 55.1301 10.9784C55.2123 11.0078 55.2937 11.0392 55.3743 11.0726C55.455 11.106 55.5347 11.1414 55.6136 11.1787C55.6925 11.216 55.7705 11.2552 55.8475 11.2964C55.9245 11.3375 56.0003 11.3805 56.0752 11.4254C56.1501 11.4703 56.2238 11.517 56.2964 11.5655C56.369 11.614 56.4403 11.6642 56.5104 11.7162C56.5805 11.7682 56.6493 11.8219 56.7168 11.8772C56.7843 11.9326 56.8503 11.9896 56.915 12.0482C56.9796 12.1069 57.0428 12.167 57.1046 12.2287C57.1663 12.2904 57.2265 12.3536 57.2851 12.4184C57.3437 12.483 57.4007 12.5491 57.4561 12.6165C57.5115 12.684 57.5651 12.7528 57.6171 12.8229C57.6691 12.893 57.7193 12.9644 57.7678 13.0369C57.8163 13.1095 57.863 13.1832 57.9079 13.2581C57.9528 13.333 57.9958 13.4089 58.037 13.4859C58.0781 13.5629 58.1173 13.6408 58.1546 13.7197C58.1919 13.7986 58.2273 13.8784 58.2607 13.959C58.2941 14.0396 58.3255 14.1211 58.3549 14.2032C58.3843 14.2854 58.4116 14.3682 58.437 14.4518C58.4623 14.5353 58.4856 14.6194 58.5068 14.7041C58.528 14.7888 58.5471 14.8739 58.5642 14.9595C58.5812 15.0451 58.5961 15.1311 58.609 15.2174C58.6217 15.3037 58.6324 15.3904 58.641 15.4772C58.6495 15.5641 58.656 15.6511 58.6603 15.7383C58.6645 15.8255 58.6667 15.9127 58.6667 16L58.6667 48C58.6667 48.0873 58.6645 48.1745 58.6603 48.2617C58.656 48.3489 58.6495 48.4359 58.641 48.5227C58.6324 48.6096 58.6217 48.6962 58.609 48.7825C58.5961 48.8689 58.5812 48.9549 58.5642 49.0405C58.5471 49.126 58.528 49.2112 58.5068 49.2959C58.4856 49.3805 58.4623 49.4646 58.437 49.5482C58.4116 49.6317 58.3843 49.7145 58.3549 49.7967C58.3255 49.8789 58.2941 49.9603 58.2607 50.041C58.2273 50.1216 58.1919 50.2014 58.1546 50.2803C58.1173 50.3592 58.0781 50.4371 58.037 50.5141C57.9958 50.591 57.9528 50.667 57.9079 50.7419C57.863 50.8167 57.8163 50.8905 57.7678 50.963C57.7193 51.0356 57.6691 51.1069 57.6171 51.177C57.5651 51.2472 57.5115 51.316 57.4561 51.3834C57.4007 51.4509 57.3437 51.5169 57.2851 51.5816C57.2265 51.6463 57.1663 51.7095 57.1046 51.7712C57.0428 51.8329 56.9796 51.8931 56.915 51.9517C56.8503 52.0104 56.7843 52.0674 56.7168 52.1227C56.6493 52.178 56.5805 52.2317 56.5104 52.2837C56.4403 52.3357 56.369 52.386 56.2964 52.4345C56.2238 52.483 56.1501 52.5297 56.0752 52.5745C56.0003 52.6194 55.9245 52.6624 55.8475 52.7035C55.7705 52.7447 55.6925 52.7839 55.6136 52.8212C55.5347 52.8585 55.455 52.8939 55.3743 52.9274C55.2937 52.9607 55.2123 52.9921 55.1301 53.0215C55.0479 53.051 54.965 53.0784 54.8815 53.1037C54.798 53.129 54.7139 53.1523 54.6293 53.1735C54.5446 53.1947 54.4595 53.2138 54.3738 53.2309C54.2882 53.2479 54.2022 53.2628 54.1159 53.2756C54.0295 53.2884 53.943 53.299 53.8561 53.3076C53.7693 53.3162 53.6822 53.3226 53.5951 53.3269C53.5078 53.3312 53.4206 53.3333 53.3333 53.3333L10.6667 53.3333C10.5794 53.3333 10.4922 53.3312 10.405 53.3269C10.3178 53.3226 10.2308 53.3162 10.1439 53.3076C10.0571 53.299 9.97045 53.2884 9.88412 53.2756C9.79779 53.2628 9.71181 53.2479 9.62618 53.2309C9.54056 53.2138 9.45542 53.1947 9.37075 53.1735C9.28608 53.1523 9.202 53.129 9.1185 53.1037C9.03495 53.0784 8.9521 53.051 8.86993 53.0215C8.78773 52.9921 8.70631 52.9607 8.62568 52.9274C8.54506 52.8939 8.46529 52.8585 8.38637 52.8212C8.30745 52.7839 8.22952 52.7447 8.15256 52.7035C8.07556 52.6624 7.99964 52.6194 7.92481 52.5745C7.84993 52.5297 7.7762 52.483 7.70362 52.4345C7.63104 52.386 7.5597 52.3357 7.48962 52.2837C7.4195 52.2317 7.3507 52.178 7.28325 52.1227C7.21575 52.0674 7.14967 52.0104 7.085 51.9517C7.02033 51.8931 6.95714 51.8329 6.89543 51.7712C6.83373 51.7095 6.77356 51.6463 6.71493 51.5816C6.65631 51.5169 6.59931 51.4509 6.54393 51.3834C6.48856 51.316 6.43487 51.2472 6.38287 51.177C6.33087 51.1069 6.28063 51.0356 6.23216 50.963C6.18367 50.8905 6.13698 50.8167 6.09211 50.7419C6.04724 50.667 6.00423 50.591 5.96308 50.5141C5.92194 50.4371 5.88271 50.3592 5.84538 50.2803C5.80807 50.2014 5.77271 50.1216 5.7393 50.041C5.7059 49.9603 5.6745 49.8789 5.6451 49.7967C5.61569 49.7145 5.58832 49.6317 5.56298 49.5482C5.53765 49.4646 5.51437 49.3805 5.49317 49.2959C5.47196 49.2112 5.45284 49.126 5.43581 49.0405C5.41878 48.9549 5.40386 48.8689 5.39105 48.7825C5.37825 48.6962 5.36757 48.6096 5.35901 48.5227C5.35046 48.4359 5.34404 48.3489 5.33975 48.2617C5.33547 48.1745 5.33333 48.0873 5.33333 48L5.33333 16C5.33333 15.9127 5.33547 15.8255 5.33975 15.7383C5.34404 15.6511 5.35046 15.5641 5.35901 15.4772C5.36757 15.3904 5.37825 15.3037 5.39105 15.2174C5.40386 15.1311 5.41878 15.0451 5.43581 14.9595C5.45284 14.8739 5.47196 14.7888 5.49317 14.7041C5.51437 14.6194 5.53765 14.5353 5.56298 14.4518C5.58832 14.3682 5.61569 14.2854 5.6451 14.2032C5.6745 14.1211 5.7059 14.0396 5.7393 13.959C5.77271 13.8784 5.80807 13.7986 5.84539 13.7197C5.88271 13.6408 5.92194 13.5629 5.96308 13.4859C6.00423 13.4089 6.04724 13.333 6.09211 13.2581C6.13698 13.1832 6.18367 13.1095 6.23216 13.0369C6.28063 12.9644 6.33087 12.893 6.38287 12.8229C6.43487 12.7528 6.48856 12.684 6.54393 12.6165C6.59931 12.5491 6.65631 12.483 6.71493 12.4184C6.77356 12.3536 6.83373 12.2904 6.89543 12.2287C6.95714 12.167 7.02033 12.1069 7.085 12.0482C7.14967 11.9896 7.21575 11.9326 7.28325 11.8772C7.3507 11.8219 7.4195 11.7682 7.48962 11.7162C7.5597 11.6642 7.63104 11.614 7.70362 11.5655C7.7762 11.517 7.84993 11.4703 7.92481 11.4254C7.99964 11.3805 8.07556 11.3375 8.15256 11.2964C8.22952 11.2552 8.30745 11.216 8.38637 11.1787C8.46529 11.1414 8.54506 11.106 8.62568 11.0726C8.70631 11.0392 8.78773 11.0078 8.86993 10.9784C8.9521 10.949 9.03495 10.9216 9.1185 10.8963C9.202 10.871 9.28608 10.8477 9.37075 10.8265C9.45542 10.8053 9.54056 10.7861 9.62618 10.7691C9.71181 10.7521 9.79779 10.7372 9.88412 10.7244C9.97045 10.7116 10.0571 10.7009 10.1439 10.6924C10.2308 10.6838 10.3178 10.6773 10.405 10.673C10.4922 10.6688 10.5794 10.6667 10.6667 10.6667ZM10.6667 16L10.6667 48L29.3333 48L29.3333 16L10.6667 16ZM53.3333 48L53.3333 16L50.0267 16C50.6667 17.44 50.5333 18.8533 50.5333 19.0133C50.3467 20.8 49.0933 22.6667 48.64 23.3333L42.4267 30.1333L51.28 30.08L51.3067 33.3333L37.44 33.2533L37.3333 30.5867C37.3333 30.5867 45.4667 21.9733 45.8667 21.2C46.24 20.4533 47.76 16 44 16C40.72 16.1333 41.0933 19.4667 41.0933 19.4667L36.9867 19.4933C36.9867 19.4933 37.0133 17.7333 38 16L34.6667 16L34.6667 48L41.5467 48L41.52 45.7067L44.1067 45.68C44.1067 45.68 46.5333 45.2533 46.56 42.88C46.6667 40.2133 44.4 40.2133 44 40.2133C43.6533 40.2133 41.1467 40.3467 41.1467 42.5333L37.0933 42.5333C37.0933 42.5333 37.2 37.04 44 37.04C50.9333 37.04 50.56 42.4267 50.56 42.4267C50.56 42.4267 50.6667 45.76 47.6 47.0133L48.9867 48L53.3333 48ZM23.7867 42.6667L19.7867 42.6667L19.7867 27.2L14.9867 28.6933L14.9867 25.4133L23.36 22.4267L23.7867 22.4267L23.7867 42.6667Z"></path></g></g><defs><rect id="path_0" x="0" y="0" width="64" height="64" rx="0" ry="0"/></defs></svg>